HIERARCHY
ROOT Hips
{
  OFFSET 0 0 0
  CHANNELS 6 Xposition Yposition Zposition Zrotation Yrotation Xrotation
  JOINT LeftThigh
  {
    OFFSET 8.409438 0 -5.917753
    CHANNELS 3 Zrotation Yrotation Xrotation
    JOINT LeftLeg
    {
      OFFSET 0 0 -42.358652
      CHANNELS 3 Zrotation Yrotation Xrotation
      JOINT LeftFoot
      {
        OFFSET 0 0 -39.357303
        CHANNELS 3 Zrotation Yrotation Xrotation
      }
    }
  }
  JOINT RightThigh
  {
    OFFSET -8.409438 0 -5.917753
    CHANNELS 3 Zrotation Yrotation Xrotation
    JOINT RightLeg
    {
      OFFSET 0 0 -42.358652
      CHANNELS 3 Zrotation Yrotation Xrotation
      JOINT RightFoot
      {
        OFFSET 0 0 -39.357303
        CHANNELS 3 Zrotation Yrotation Xrotation
      }
    }
  }
  JOINT SpineLow
  {
    OFFSET 0 0 4.719101
    CHANNELS 3 Zrotation Yrotation Xrotation
    JOINT SpineMid
    {
      OFFSET 0 0 12.899191
      CHANNELS 3 Zrotation Yrotation Xrotation
      JOINT Chest
      {
        OFFSET 0 0 12.899191
        CHANNELS 3 Zrotation Yrotation Xrotation
        JOINT LeftShoulder
        {
          OFFSET 7.550562 1.41573 9.438202
          CHANNELS 3 Zrotation Yrotation Xrotation
          JOINT LeftArm
          {
            OFFSET 9.155056 0 4.247191
            CHANNELS 3 Zrotation Yrotation Xrotation
            JOINT LeftForearm
            {
              OFFSET 0 0 25.771955
              CHANNELS 3 Zrotation Yrotation Xrotation
              JOINT LeftHand
              {
                OFFSET 0 0 25.197169
                CHANNELS 3 Zrotation Yrotation Xrotation
              }
            }
          }
        }
        JOINT RightShoulder
        {
          OFFSET -7.550562 1.41573 9.438202
          CHANNELS 3 Zrotation Yrotation Xrotation
          JOINT RightArm
          {
            OFFSET -9.155056 0 4.247191
            CHANNELS 3 Zrotation Yrotation Xrotation
            JOINT RightForearm
            {
              OFFSET 0 0 -25.771955
              CHANNELS 3 Zrotation Yrotation Xrotation
              JOINT RightHand
              {
                OFFSET 0 0 -25.197169
                CHANNELS 3 Zrotation Yrotation Xrotation
              }
            }
          }
        }
        JOINT Neck
        {
          OFFSET 0 0 15.101124
          CHANNELS 3 Zrotation Yrotation Xrotation
          JOINT Head
          {
            OFFSET 0 0 11.325843
            CHANNELS 3 Zrotation Yrotation Xrotation
            End Site
            {
              OFFSET 0 0 14.157303
            }
          }
        }
      }
    }
  }
}
MOTION
Frames: 16
Frame Time: 0.0
0.0  101.685394  0.0  -4.22511  -40.37421  -101.65558  35.917911  -35.495579  -35.670201  8.189966  17.813976  64.618428  -1.858303  4.847619  0.501642  -0.405199  14.896893  3.69132  -4.324166  9.046187  33.935538  4.215086  6.880896  -5.812653  -1.272218  -0.185837  3.305816  -3.495414  -0.33308  9.043092  -3.495414  -0.33308  9.043092  2.927565  23.74929  2.122919  -134.399634  63.637229  -88.85262  -25.028422  -26.840397  83.805942  121.689317  35.265381  -9.16837  7.051606  -8.838732  15.066014  96.062631  21.985726  48.093013  -8.720413  32.596086  -87.949583  51.172588  3.517011  18.123663  14.571335  -1.486745  -4.050942  10.918612  -1.212549  -3.004599  
0.0  101.685394  0.0  -4.006547  -40.086443  -101.804813  36.135643  -35.351504  -35.376269  8.396508  18.00451  64.045686  -1.407015  4.582545  0.517725  -0.340741  15.017371  3.750659  -4.243679  8.888804  34.088268  4.092993  7.054563  -5.842125  -1.263096  -0.161264  3.292371  -3.46714  -0.268032  9.005014  -3.467141  -0.268032  9.005015  2.829961  23.657564  2.098021  -135.136878  63.513416  -89.335706  -25.046834  -27.114643  83.82738  121.72348  35.209496  -8.961834  7.046951  -8.857935  14.936993  96.224966  21.887688  48.153593  -8.814354  31.973584  -87.909735  51.247097  3.781904  18.597007  14.475974  -1.484742  -4.05426  10.8471  -1.210481  -3.007343  
0.0  101.685394  0.0  -3.731754  -39.716887  -101.939408  36.250131  -35.149417  -35.050028  8.985722  17.681667  63.476577  -1.451288  4.24219  0.806041  -0.549636  15.252714  3.842676  -4.192773  8.830548  34.042648  3.918799  7.110754  -5.873793  -1.244501  -0.131672  3.273591  -3.412368  -0.190844  8.952109  -3.412368  -0.190844  8.952108  2.754704  23.593787  2.124457  -135.818595  63.41417  -89.687429  -25.123577  -27.254678  83.884416  121.752124  35.134776  -8.877427  7.058563  -8.865348  14.847809  96.347576  21.843575  48.14264  -8.855631  31.141799  -87.739616  51.500167  4.086153  18.990585  14.376547  -1.476065  -4.043127  10.772619  -1.203034  -2.99941  
0.0  101.685394  0.0  -3.601635  -39.094031  -101.950769  36.190888  -34.918533  -34.880728  9.772537  16.694644  63.065661  -2.441071  3.981047  1.183141  -1.224804  15.467438  3.995241  -4.037733  8.842197  33.807792  4.138523  7.306773  -5.964711  -1.260827  -0.117312  3.250038  -3.454946  -0.150711  8.88701  -3.454946  -0.150711  8.887011  2.581091  23.498341  2.151554  -136.421128  63.382639  -89.884792  -25.254392  -27.394482  83.780303  121.788403  35.029103  -8.917966  6.977365  -8.925394  14.739683  96.572608  21.776819  48.167033  -10.14825  29.681834  -87.906855  52.375619  3.969357  18.3329  14.128141  -1.501041  -4.080645  10.586047  -1.220975  -3.027514  
0.0  101.685394  0.0  -3.473196  -38.394157  -101.915303  36.064908  -34.570877  -34.853434  10.354461  15.323715  62.943777  -4.017484  4.013561  1.300814  -2.394026  15.812455  4.04147  -3.654271  8.902178  33.495325  4.225862  7.324147  -6.04369  -1.286413  -0.11068  3.222913  -3.523842  -0.130639  8.812543  -3.523842  -0.130639  8.812542  2.461254  23.503441  2.178126  -136.928909  63.38803  -89.984372  -25.391367  -27.418768  83.718813  121.824369  34.916306  -9.033378  6.988538  -8.915327  14.698433  96.643457  21.865728  48.121194  -10.037914  28.690389  -87.640365  52.941474  4.258464  18.545151  14.025403  -1.483614  -4.103223  10.509075  -1.207718  -3.045087  
0.0  101.685394  0.0  -3.604137  -37.303483  -101.657761  35.4675  -34.268238  -35.074221  10.526022  14.147393  63.124021  -5.198823  4.366301  1.19379  -4.274575  16.025212  4.040544  -3.289757  8.970751  33.050589  4.394262  7.350948  -6.09507  -1.387623  -0.129964  3.182126  -3.802473  -0.172093  8.702205  -3.802473  -0.172093  8.702205  2.526737  23.512314  2.253209  -137.504567  63.489522  -90.056924  -25.541027  -27.462326  83.587435  121.833907  34.81079  -9.119205  6.959499  -8.950741  14.693676  96.788834  22.01055  48.14043  -9.86169  27.78331  -87.421754  53.480237  4.566205  18.747933  13.810063  -1.525743  -4.175852  10.347093  -1.239509  -3.099091  
0.0  101.685394  0.0  -3.638981  -36.513262  -101.478637  34.916967  -34.144369  -35.350448  10.643492  13.666931  63.505051  -5.656488  4.647298  1.027823  -5.694019  16.225562  4.106012  -2.733252  9.119266  32.547318  4.434829  7.372333  -6.055129  -1.439242  -0.153695  3.145843  -3.946361  -0.232185  8.604527  -3.946361  -0.232185  8.604526  2.527252  23.606799  2.298787  -138.043239  63.585268  -90.11531  -25.627247  -27.550354  83.40139  121.814717  34.699976  -9.041353  7.032087  -8.841186  14.765698  96.770169  22.338834  48.080226  -9.683041  26.965424  -87.313351  53.928359  4.86482  19.072944  13.761957  -1.503807  -4.179402  10.311172  -1.222792  -3.102361  
0.0  101.685394  0.0  -3.678723  -35.751944  -101.25987  34.235508  -34.204921  -35.653468  10.800479  14.099731  63.812887  -5.181784  4.752612  0.997792  -6.87178  16.344085  4.106639  -3.515597  9.118764  32.178735  5.1164  8.175067  -6.145019  -1.513547  -0.17662  3.094514  -4.151947  -0.288264  8.46584  -4.151947  -0.288264  8.46584  2.692171  23.69304  2.402228  -138.417976  63.641604  -90.390437  -25.740056  -27.710574  83.250752  120.934294  33.838055  -9.200905  7.225013  -8.786845  14.88941  95.257947  23.672691  47.34781  -7.773778  26.743376  -87.220378  54.142019  5.174266  19.613684  13.640328  -1.529387  -4.197987  10.219714  -1.241559  -3.115997  
0.0  101.685394  0.0  -3.751317  -34.969366  -101.067098  33.411288  -34.277112  -35.916136  10.834943  15.077227  63.925024  -3.946346  4.719054  1.168145  -7.583264  16.32613  4.147462  -3.455523  9.297757  31.99625  4.797347  8.395797  -6.117745  -1.560284  -0.21377  3.058845  -4.284096  -0.385904  8.370927  -4.284096  -0.385904  8.370927  2.728661  23.797255  2.484564  -139.102599  63.745523  -90.565072  -25.791292  -27.90622  83.043832  120.827611  33.705715  -8.835866  7.320818  -8.666807  14.99707  95.189257  24.147322  47.339169  -7.595255  26.276456  -87.386465  54.137918  5.484149  20.320648  13.596809  -1.484053  -4.187039  10.187445  -1.206989  -3.1089  
0.0  101.685394  0.0  -3.748599  -34.148133  -100.915505  32.70769  -34.174083  -36.101216  10.62616  16.204322  63.737419  -2.558547  4.630818  1.478426  -7.873728  16.220172  4.170934  -3.930473  9.561595  31.986702  4.424155  8.663752  -6.107875  -1.657421  -0.236717  3.01  -4.551825  -0.439555  8.239427  -4.551825  -0.439555  8.239426  2.977171  23.911324  2.661761  -139.536639  63.834769  -90.815071  -25.932378  -27.951985  83.034327  120.671245  33.564287  -8.494211  7.661745  -8.558305  15.209008  93.676383  25.594867  46.548749  -5.868661  26.31366  -87.544311  54.043049  5.721106  21.019061  13.544472  -1.47768  -4.185639  10.148243  -1.20181  -3.108105  
0.0  101.685394  0.0  -3.726485  -33.364358  -100.840489  32.298684  -33.887405  -36.221013  10.095559  17.083191  63.318694  -1.4777  4.568974  1.81303  -7.56728  16.019855  4.315711  -4.589921  9.870063  32.080885  3.93676  8.947713  -6.06341  -1.676729  -0.250076  3.003319  -4.606149  -0.474045  8.222205  -4.606149  -0.474045  8.222205  2.837032  23.982425  2.68947  -140.029387  63.969137  -90.823598  -25.977256  -28.032853  82.92508  120.492168  33.429913  -8.251079  7.63469  -8.511223  15.234244  93.65458  26.306522  46.461209  -6.025828  25.993988  -87.953397  53.894987  5.756719  21.545678  13.436133  -1.447421  -4.262797  10.067058  -1.180048  -3.16691  
0.0  101.685394  0.0  -3.579085  -32.539465  -100.838341  32.116942  -33.288257  -36.292208  9.379792  17.445505  62.87307  -0.819566  4.553209  2.14025  -6.98043  15.846567  4.492855  -5.338354  10.117538  32.260376  3.30555  9.257878  -6.060985  -1.680059  -0.236857  3.020458  -4.613656  -0.436383  8.268106  -4.613656  -0.436383  8.268106  2.482001  23.899183  2.513494  -140.477954  64.074206  -91.147306  -26.120117  -27.86215  83.120383  120.30628  33.320577  -8.132472  7.357072  -8.561135  15.070004  93.827285  27.074573  46.395795  -6.697851  25.894576  -88.689071  53.584576  5.332864  21.700018  13.120709  -1.4717  -4.492613  9.82981  -1.200979  -3.339494  
0.0  101.685394  0.0  -3.458651  -31.671818  -100.880425  32.029709  -32.573529  -36.35804  8.665431  17.276333  62.561373  -0.873916  4.536796  2.257363  -6.130867  15.613594  4.791436  -6.374008  10.377413  32.402372  2.6071  9.570627  -6.037729  -1.721876  -0.236461  3.039605  -4.727785  -0.428701  8.320556  -4.727785  -0.428701  8.320556  2.482843  23.970429  2.475981  -141.158569  64.268897  -91.288798  -26.193493  -27.833277  83.11611  120.094905  33.24774  -8.099715  7.360548  -8.418919  15.026156  93.861977  28.027611  46.166521  -6.818885  25.699219  -89.109228  53.555942  5.216827  22.112896  13.068946  -1.402881  -4.633997  9.791258  -1.151979  -3.447185  
0.0  101.685394  0.0  -3.350418  -30.599864  -100.927531  31.728054  -31.772281  -36.416462  8.0518  16.815934  62.395648  -1.28063  4.49802  2.238227  -5.403877  15.393932  5.161214  -7.372689  10.622756  32.479138  2.12397  10.002938  -6.0844  -1.80706  -0.224037  3.040744  -4.958636  -0.384019  8.32306  -4.958637  -0.384019  8.32306  2.655515  24.026194  2.59849  -141.74034  64.480156  -91.555183  -26.343738  -27.615685  83.358754  119.879855  33.210395  -8.093273  7.419676  -8.361576  15.038333  93.866641  29.035459  45.895998  -7.351581  25.2085  -89.666463  53.911291  4.938001  22.114926  12.965773  -1.420245  -4.750639  9.713497  -1.166697  -3.534544  
0.0  101.685394  0.0  -3.283567  -29.535299  -100.845853  31.47069  -30.988581  -36.609242  7.51974  16.369991  62.289313  -1.61227  4.447534  2.256006  -4.812154  15.154771  5.477848  -8.457393  10.842338  32.411669  1.464564  10.306123  -6.071624  -1.854555  -0.226794  3.027964  -5.088531  -0.386543  8.288519  -5.088531  -0.386543  8.288519  2.658161  24.066425  2.74149  -142.617807  64.738046  -91.811455  -26.461987  -27.531317  83.429134  119.653351  33.218331  -8.090799  7.318758  -8.276778  15.061173  93.766832  30.218352  45.524697  -7.808998  25.017173  -90.387827  53.961381  4.486706  22.278862  12.834399  -1.401469  -4.872753  9.614879  -1.154143  -3.62684  
0.0  101.685394  0.0  -3.272724  -28.653687  -100.708628  31.252364  -30.345807  -36.871202  6.951942  16.214722  62.031016  -1.658437  4.416541  2.398851  -3.312841  14.823187  6.185014  -9.904479  10.970626  32.159361  0.510758  10.302832  -6.054033  -1.886134  -0.242343  3.014223  -5.176597  -0.426059  8.252319  -5.176597  -0.426059  8.252319  2.98199  24.233291  2.953069  -143.685288  65.03227  -92.194386  -26.595818  -27.358665  83.673561  119.412207  33.273422  -8.089549  7.266644  -8.150128  15.063088  93.712421  31.51789  45.115392  -8.3092  24.819532  -91.118666  54.00465  4.01087  22.455118  12.590534  -1.408124  -5.05987  9.431543  -1.161033  -3.767592  
